<svg width="33" height="39" fill="none" xmlns="http://www.w3.org/2000/svg"><path fill-rule="evenodd" clip-rule="evenodd" d="M8.563.06c-.224.082-.329.52-.237.996.06.316.1.365 1.145 1.398l1.082 1.07-.376.323c-2.166 1.86-3.427 4.357-3.565 7.06l-.022.418h19.799l-.022-.418c-.142-2.79-1.506-5.425-3.638-7.03l-.45-.338 1.07-1.047C24.636 1.23 24.783.99 24.553.512c-.19-.396-.698-.57-1.08-.371-.093.049-.732.645-1.419 1.325l-1.249 1.237-.635-.33c-1.054-.547-2.143-.772-3.735-.772-1.375 0-2.691.245-3.846.717l-.557.228-.587-.612c-.323-.337-.834-.877-1.135-1.2C10.01.41 9.687.11 9.593.07 9.39-.019 8.8-.024 8.563.06Zm4.597 7.244v.804l-.8-.017-.802-.018-.017-.74c-.01-.406-.007-.769.007-.805.017-.042.302-.059.819-.046l.793.019v.803Zm8.278 0-.018.77-.8.017-.802.017v-1.61l.77-.018c.423-.01.792-.001.819.019.027.02.04.382.031.805Zm-14.845 5.71c-.017.044-.023 3.8-.014 8.347.016 7.83.023 8.283.132 8.558.138.352.565.757.9.855.132.039.7.087 1.262.106l1.02.036.001 2.98c.001 3.157.006 3.221.308 3.804.197.381.732.872 1.17 1.075 1.303.6 2.776-.057 3.362-1.501.067-.166.093-.891.12-3.297l.034-3.083H18.09l.034 3.083c.026 2.406.053 3.13.12 3.297.456 1.124 1.491 1.816 2.569 1.717 1-.093 1.872-.823 2.181-1.83.07-.228.089-.888.09-3.266v-2.98l1.02-.035c.562-.02 1.13-.067 1.264-.106.36-.106.765-.506.9-.887.107-.303.114-.78.114-8.62v-8.3l-9.88-.016c-7.98-.013-9.885 0-9.91.063Zm-4.955.117c-.67.26-1.221.802-1.494 1.467l-.144.35v6.133C0 28-.034 27.509.5 28.223c1.04 1.393 3.089 1.311 4.048-.162.394-.606.384-.435.384-6.95 0-6.431.007-6.308-.348-6.905-.18-.303-.67-.776-.953-.92-.616-.315-1.422-.377-1.992-.155Zm28.093-.011a2.729 2.729 0 0 0-1.358 1.12c-.328.544-.326.494-.326 6.872 0 6.514-.01 6.343.385 6.949.468.72 1.256 1.163 2.07 1.164 1 .002 1.933-.644 2.34-1.621.136-.33.136-.33.154-6.214.012-3.917-.004-6.025-.048-6.307-.142-.902-.744-1.622-1.636-1.957-.435-.163-1.155-.166-1.58-.006Z" fill="#AAA"/></svg>