<svg width="201" height="201" fill="none" xmlns="http://www.w3.org/2000/svg"><g filter="url(#a)"><rect x="19" y="96.317" width="115" height="115" rx="15" transform="rotate(-45 19 96.317)" fill="url(#b)"/></g><path d="m123 123-5.773-5.116-3.254-3.041-3.44-3.211 1.413 4.999H81.504c-3.048-.011-5.512-2.503-5.504-5.568V74.562c-.005-3.063 2.458-5.551 5.504-5.562h35.992c3.046.011 5.509 2.5 5.504 5.562V123Zm-12.792-24.135a8.505 8.505 0 0 1-4.849 3.206c.797 1.023 1.759 2.18 1.767 2.191a9.874 9.874 0 0 0 8.218-4.104 36.602 36.602 0 0 0-3.867-15.74 13.305 13.305 0 0 0-7.514-2.842h-.032l-.376.432a18.05 18.05 0 0 1 6.689 3.428 21.928 21.928 0 0 0-8.085-2.592 22.434 22.434 0 0 0-5.422.054 2.243 2.243 0 0 0-.38.04h-.078c-2.108.244-4.165.82-6.096 1.705-.966.446-1.56.77-1.586.781-.025.012 0 0 0-.02a18.961 18.961 0 0 1 7.065-3.498l-.282-.324h-.017a13.31 13.31 0 0 0-7.515 2.842 36.332 36.332 0 0 0-3.867 15.74 9.709 9.709 0 0 0 8.198 4.104s1.012-1.239 1.801-2.243a8.383 8.383 0 0 1-4.713-3.183c.02.014.3.205.752.455.03.036.068.065.11.085a.785.785 0 0 0 .114.066c.044.02.087.045.127.073.63.35 1.285.654 1.96.91 1.28.51 2.605.9 3.957 1.165 1.184.224 2.386.339 3.59.341 1.13 0 2.257-.105 3.367-.312a17.798 17.798 0 0 0 3.893-1.16 15.554 15.554 0 0 0 3.071-1.6Zm-5.762-1.214a2.992 2.992 0 0 1-2.946-1.667 3.024 3.024 0 0 1 .479-3.365 2.982 2.982 0 0 1 3.292-.771 3.01 3.01 0 0 1 1.909 2.805 2.882 2.882 0 0 1-2.737 2.998h.003Zm-9.804 0a3.004 3.004 0 0 1-2.734-2.998 3.004 3.004 0 0 1 2.734-2.999 2.628 2.628 0 0 1 1.888.81c.561.586.867 1.373.848 2.186a2.879 2.879 0 0 1-2.74 3.001h.004Z" fill="#fff"/><defs><linearGradient id="b" x1="11.477" y1="-172.016" x2="315.545" y2="-101.769" gradientUnits="userSpaceOnUse"><stop stop-color="#0AA6FE"/><stop offset="1" stop-color="#05FFFF"/></linearGradient><filter id="a" x=".213" y=".213" width="200.208" height="200.208" filterUnits="userSpaceOnUse" color-interpolation-filters="sRGB"><feFlood flood-opacity="0" result="BackgroundImageFix"/><feColorMatrix in="SourceAlpha" values="0 0 0 0 0 0 0 0 0 0 0 0 0 0 0 0 0 0 127 0" result="hardAlpha"/><feOffset dy="4"/><feGaussianBlur stdDeviation="12.5"/><feComposite in2="hardAlpha" operator="out"/><feColorMatrix values="0 0 0 0 0.0392157 0 0 0 0 0.65098 0 0 0 0 0.996078 0 0 0 0.48 0"/><feBlend in2="BackgroundImageFix" result="effect1_dropShadow_4417_4"/><feBlend in="SourceGraphic" in2="effect1_dropShadow_4417_4" result="shape"/><feColorMatrix in="SourceAlpha" values="0 0 0 0 0 0 0 0 0 0 0 0 0 0 0 0 0 0 127 0" result="hardAlpha"/><feOffset/><feGaussianBlur stdDeviation="12.5"/><feComposite in2="hardAlpha" operator="arithmetic" k2="-1" k3="1"/><feColorMatrix values="0 0 0 0 0 0 0 0 0 0.197167 0 0 0 0 0.704167 0 0 0 0.3 0"/><feBlend in2="shape" result="effect2_innerShadow_4417_4"/></filter></defs></svg>