<svg width="30" height="40" fill="none" xmlns="http://www.w3.org/2000/svg"><path fill-rule="evenodd" clip-rule="evenodd" d="M23.525.061c-3.76.561-6.4 2.296-7.681 5.047a9.261 9.261 0 0 0-.837 3.74v.345l.348-.027c1.147-.09 2.436-.38 3.403-.766 3.144-1.257 5.01-3.966 5.247-7.62.042-.632.03-.788-.055-.78-.026.003-.217.03-.425.061Zm-1.811 12.21c-1.17.075-1.647.193-4.22 1.05l-2.267.756-1.235-.41-1.955-.65c-1.243-.415-2.163-.558-3.319-.517-2.83.102-5.033 1.468-6.825 4.233-2.47 3.813-2.523 8.646-.156 14.481 1.506 3.714 3.452 6.55 5.417 7.9 1.116.766 2.16 1.017 3.428.824.51-.078.995-.233 1.736-.556 1.392-.607 2.012-.766 3.315-.851.542-.035.705-.032 1.015.022.677.118 1.673.39 2.618.712 1.675.573 1.934.633 2.746.629.486-.002.637-.02.955-.106.938-.256 1.782-.824 2.723-1.83 1.56-1.671 3.053-4.21 4.055-6.9.273-.732.284-.772.227-.772-.074 0-.806-.389-1.162-.617-1.867-1.197-3.093-2.936-3.52-4.993-.083-.405-.105-.644-.122-1.338-.024-.944.017-1.492.17-2.274.329-1.672 1.113-3.132 2.207-4.11.366-.327.918-.705 1.256-.86.14-.064.255-.125.255-.137.003-.053-.559-.775-.844-1.084a8.11 8.11 0 0 0-6.498-2.603Z" fill="#fff"/></svg>