<svg width="215" height="28" fill="none" xmlns="http://www.w3.org/2000/svg"><path d="M16.155 22.365c-2.15 0-3.796-.518-4.938-1.555-1.126-1.036-1.69-2.546-1.69-4.53v-4.774h4.28v4.286c0 1.007.241 1.762.724 2.265.497.489 1.222.733 2.172.733.615 0 1.193-.06 1.734-.178a4.882 4.882 0 0 0 1.47-.6l.11 3.531a16.5 16.5 0 0 1-2.04.622c-.63.133-1.237.2-1.822.2Zm3.27 4.685V11.506h4.279V27.05h-4.28ZM27.002 27.05V11.506h4.28v9.127l6.341-9.127h4.082V27.05h-4.28v-9.104l-6.32 9.104h-4.103ZM48.404 27.05V14.016l.966.977h-5.684v-3.487H57.38v3.487h-5.662l.965-.977V27.05h-4.279ZM59.383 27.05V11.506h4.279v4.952h3.554c1.873 0 3.321.422 4.346 1.266 1.038.844 1.558 2.11 1.558 3.797 0 1.82-.578 3.198-1.734 4.13-1.156.933-2.736 1.4-4.74 1.4h-7.264Zm4.279-3.153h2.699c.731 0 1.31-.2 1.733-.6.44-.4.659-.962.659-1.687 0-.74-.22-1.258-.659-1.555-.424-.31-1.002-.466-1.733-.466h-2.7v4.308Zm11.147 3.153V11.506h4.28V27.05h-4.28ZM99.054 27.05V11.506h4.345V27.05h-4.345Zm-10.27 0V11.506h4.345V27.05h-4.345Zm4.038-6.062v-3.642h6.54v3.642h-6.54ZM105.163 27.05l6.781-15.544h4.279l6.803 15.544h-4.52l-5.311-13.39h1.712l-5.311 13.39h-4.433Zm3.709-3.02 1.119-3.242h7.505l1.119 3.242h-9.743ZM131.063 27.05V11.506h7.022c1.404 0 2.611.23 3.621.689 1.024.459 1.814 1.125 2.37 1.998.556.859.834 1.88.834 3.065 0 1.17-.278 2.183-.834 3.042-.556.858-1.346 1.524-2.37 1.998-1.01.46-2.217.689-3.621.689h-4.608l1.931-1.91v5.973h-4.345Zm4.345-5.507-1.931-2.02h4.345c.907 0 1.58-.2 2.018-.6.454-.4.681-.955.681-1.665 0-.726-.227-1.288-.681-1.688-.438-.4-1.111-.6-2.018-.6h-4.345l1.931-2.02v8.593ZM173.489 27.361c-2.268 0-4.038-.63-5.311-1.887-1.273-1.259-1.909-3.043-1.909-5.352v-8.616h4.345v8.483c0 1.332.256 2.287.768 2.864.527.578 1.243.866 2.15.866.907 0 1.617-.288 2.129-.866.512-.577.768-1.532.768-2.864v-8.483h4.279v8.616c0 2.31-.636 4.093-1.909 5.352-1.273 1.258-3.043 1.887-5.31 1.887ZM183.652 27.05V11.506h7.856c2.018 0 3.525.378 4.52 1.133.995.74 1.492 1.717 1.492 2.931 0 .8-.212 1.503-.636 2.11-.41.592-.995 1.065-1.756 1.42-.746.341-1.638.511-2.677.511l.439-1.066c1.083 0 2.026.17 2.831.511.804.326 1.426.807 1.865 1.444.454.621.68 1.384.68 2.287 0 1.347-.541 2.398-1.623 3.153-1.068.74-2.634 1.11-4.697 1.11h-8.294Zm4.301-3.175h3.642c.746 0 1.31-.126 1.69-.378.395-.266.593-.666.593-1.199s-.198-.925-.593-1.177c-.38-.266-.944-.4-1.69-.4h-3.95V17.68h3.292c.731 0 1.28-.126 1.646-.378.366-.252.548-.63.548-1.133s-.182-.873-.548-1.11c-.366-.251-.915-.377-1.646-.377h-2.984v9.193ZM208.197 27.361c-1.214 0-2.34-.192-3.379-.577a8.052 8.052 0 0 1-2.699-1.688 7.925 7.925 0 0 1-1.756-2.553c-.424-.992-.636-2.08-.636-3.265 0-1.184.212-2.265.636-3.242a7.696 7.696 0 0 1 1.778-2.576 7.765 7.765 0 0 1 2.699-1.665c1.053-.4 2.202-.6 3.445-.6 1.448 0 2.743.245 3.884.733 1.141.489 2.085 1.192 2.831 2.11l-2.765 2.531c-.527-.577-1.097-1.006-1.712-1.288-.599-.296-1.272-.444-2.018-.444-.659 0-1.259.104-1.8.311a3.708 3.708 0 0 0-1.382.91 4.152 4.152 0 0 0-.9 1.4c-.205.532-.307 1.14-.307 1.82 0 .652.102 1.251.307 1.799.219.548.519 1.021.9 1.421.38.385.833.688 1.36.91.541.208 1.134.311 1.778.311.643 0 1.272-.103 1.887-.31.614-.223 1.236-.593 1.865-1.11l2.436 3.086c-.878.636-1.895 1.125-3.05 1.465-1.156.34-2.29.511-3.402.511Zm6.452-1.976-3.84-.578v-5.862h3.84v6.44Z" fill="#fff"/><path d="m147.449 19.942.471-8.532 7.989 8.057-8.46.475Z" fill="#04FFFF"/><path d="m155.828 19.6.517-8.578 7.988 8.056-8.505.521Z" fill="#fff"/><path d="m155.208 27.988.487-8.548 7.989 8.057-8.476.491Z" fill="#FF9B05"/><path d="M0 11.484 11.348 0l2.27 2.297L2.27 13.78 0 11.484ZM4.54 16.077 15.887 4.593l2.27 2.297-11.35 11.484-2.269-2.297Z" fill="#FB8500"/></svg>