<svg width="33" height="33" fill="none" xmlns="http://www.w3.org/2000/svg"><path fill-rule="evenodd" clip-rule="evenodd" d="M15.356.02a16.554 16.554 0 0 0-9.43 3.802c-.505.417-1.688 1.6-2.095 2.093C2.033 8.095.865 10.54.32 13.261c-.872 4.348.062 8.92 2.563 12.558a17.084 17.084 0 0 0 3.43 3.66 16.528 16.528 0 0 0 8.084 3.388c5.013.634 9.99-1.02 13.567-4.51 1.949-1.9 3.307-4.039 4.166-6.558 1.79-5.254.78-11.167-2.648-15.496-.635-.802-1.606-1.812-2.32-2.413C24.593 1.728 21.553.434 18.185.069c-.586-.063-2.236-.091-2.83-.048Zm2.34 2.695c3.795.345 7.207 2.17 9.581 5.123 1.62 2.014 2.578 4.279 2.95 6.972.073.525.104 2.192.052 2.814-.557 6.722-5.878 12.072-12.582 12.65-.514.044-1.87.045-2.375.001A13.832 13.832 0 0 1 4.054 22.51a13.84 13.84 0 0 1-1.328-4.818c-.044-.478-.044-1.914 0-2.392.502-5.525 4.16-10.165 9.4-11.923 1.039-.348 2.01-.547 3.297-.673.282-.027 1.936-.02 2.274.012Zm-4.62 6.248c-.315.071-.706.29-.948.53-.253.25-.459.641-.51.97-.046.301-.046 11.763 0 12.063.02.13.089.331.169.495.454.93 1.653 1.322 2.57.839.114-.06 2.192-1.42 4.618-3.021 2.93-1.935 4.47-2.97 4.584-3.085.096-.095.222-.256.28-.359.13-.226.24-.64.24-.9 0-.259-.11-.674-.24-.9a2.063 2.063 0 0 0-.28-.36c-.115-.114-1.661-1.155-4.613-3.103a574.884 574.884 0 0 0-4.56-2.994 2.065 2.065 0 0 0-1.31-.175Z" fill="#fff"/></svg>