<svg width="47" height="39" fill="none" xmlns="http://www.w3.org/2000/svg"><path d="M10.25 39c-3 0-5.458-.958-7.375-2.875C.958 34.208 0 31.75 0 28.75c0-1 .042-1.917.125-2.75.167-.917.458-2 .875-3.25S2 19.917 2.75 18L9.375.25h10L12.125 28l-2-9.375c2.917 0 5.333.917 7.25 2.75 1.917 1.833 2.875 4.292 2.875 7.375s-.958 5.583-2.875 7.5C15.458 38.083 13.083 39 10.25 39Zm26.5 0c-3 0-5.458-.958-7.375-2.875-1.917-1.917-2.875-4.375-2.875-7.375 0-1 .042-1.917.125-2.75.167-.917.458-2 .875-3.25s1-2.833 1.75-4.75L35.875.25h10L38.625 28l-2-9.375c2.917 0 5.333.917 7.25 2.75 1.917 1.833 2.875 4.292 2.875 7.375s-.958 5.583-2.875 7.5C41.958 38.083 39.583 39 36.75 39Z" fill="#fff"/></svg>