<svg width="201" height="201" fill="none" xmlns="http://www.w3.org/2000/svg"><g filter="url(#a)"><rect x="19" y="96.317" width="115" height="115" rx="15" transform="rotate(-45 19 96.317)" fill="url(#b)"/></g><path fill-rule="evenodd" clip-rule="evenodd" d="M121.367 73.068c-.599.124-1.101.308-3.649 1.337a2714.287 2714.287 0 0 0-9.288 3.774 48075.178 48075.178 0 0 0-28.062 11.435c-1.405.572-3.002 1.222-3.55 1.442-1.6.644-2.223.998-2.838 1.613-1.267 1.266-1.31 3.142-.104 4.578.35.415 1.156 1.017 1.728 1.287.23.11 2.687.937 5.46 1.84 2.774.903 5.06 1.662 5.082 1.687.022.025.495 1.49 1.053 3.256 2.802 8.883 2.964 9.358 3.463 10.16.31.5.83 1.004 1.244 1.207.53.26 1.294.381 1.864.296.573-.086 1.1-.274 1.441-.514.144-.101.827-.682 1.516-1.292 3.165-2.798 4.496-3.947 4.565-3.941.041.004 1.313.927 2.827 2.051 7.783 5.782 7.107 5.319 8.167 5.601.586.156 2.043.152 2.646-.007a4.631 4.631 0 0 0 2.498-1.624c.697-.893.651-.732 1.715-6l1.193-5.904c.245-1.209 1.798-8.902 2.223-11.016l1.426-7.066 1.56-7.721c.215-1.067.411-2.15.434-2.409.207-2.26-1.329-4.048-3.553-4.134a4.941 4.941 0 0 0-1.061.064Zm.492 4.132a1327.43 1327.43 0 0 1-1.188 5.925l-5.705 28.23a493.234 493.234 0 0 0-.603 3.019c-.059.332-.196.59-.356.673-.194.1-.547.079-.803-.049-.177-.088-4.975-3.618-9.185-6.758-2.85-2.125-2.955-2.198-3.07-2.109-.061.047-1.588 1.386-3.391 2.976-3.336 2.941-3.79 3.335-3.79 3.296 0-.03 1.448-8.971 1.492-9.211.03-.158.375-.502 1.709-1.702.92-.827 2.151-1.938 2.737-2.467.586-.53 2.782-2.509 4.879-4.398 2.096-1.888 3.991-3.596 4.21-3.796.219-.199 1.1-.993 1.957-1.764 3.037-2.732 3.357-3.022 4.003-3.627.727-.68.844-.847.792-1.126-.079-.425-.399-.521-.996-.299-.174.065-1.002.532-1.842 1.038-.839.505-3.347 2.01-5.572 3.342l-5.275 3.16c-1.188.714-5.787 3.468-10.224 6.125-1.375.823-2.197 1.278-2.256 1.25a659.83 659.83 0 0 0-5.896-1.929c-3.193-1.035-5.829-1.902-5.857-1.926-.029-.024 2.583-1.117 5.805-2.43 5.468-2.226 10.062-4.097 20.319-8.278 8.389-3.419 9.629-3.923 13.799-5.611 2.335-.946 4.265-1.707 4.289-1.693.024.014.033.077.018.138Z" fill="#fff"/><defs><linearGradient id="b" x1="11.477" y1="-172.016" x2="315.545" y2="-101.769" gradientUnits="userSpaceOnUse"><stop stop-color="#0AA6FE"/><stop offset="1" stop-color="#05FFFF"/></linearGradient><filter id="a" x=".213" y=".213" width="200.208" height="200.208" filterUnits="userSpaceOnUse" color-interpolation-filters="sRGB"><feFlood flood-opacity="0" result="BackgroundImageFix"/><feColorMatrix in="SourceAlpha" values="0 0 0 0 0 0 0 0 0 0 0 0 0 0 0 0 0 0 127 0" result="hardAlpha"/><feOffset dy="4"/><feGaussianBlur stdDeviation="12.5"/><feComposite in2="hardAlpha" operator="out"/><feColorMatrix values="0 0 0 0 0.0392157 0 0 0 0 0.65098 0 0 0 0 0.996078 0 0 0 0.48 0"/><feBlend in2="BackgroundImageFix" result="effect1_dropShadow_4417_3"/><feBlend in="SourceGraphic" in2="effect1_dropShadow_4417_3" result="shape"/><feColorMatrix in="SourceAlpha" values="0 0 0 0 0 0 0 0 0 0 0 0 0 0 0 0 0 0 127 0" result="hardAlpha"/><feOffset/><feGaussianBlur stdDeviation="12.5"/><feComposite in2="hardAlpha" operator="arithmetic" k2="-1" k3="1"/><feColorMatrix values="0 0 0 0 0 0 0 0 0 0.197167 0 0 0 0 0.704167 0 0 0 0.3 0"/><feBlend in2="shape" result="effect2_innerShadow_4417_3"/></filter></defs></svg>