<svg width="53" height="46" viewBox="0 0 53 46" fill="none" xmlns="http://www.w3.org/2000/svg">
<path fill-rule="evenodd" clip-rule="evenodd" d="M48.3669 0.0684283C47.7684 0.191756 47.2655 0.375847 44.7181 1.40447C42.1016 2.46098 36.0496 4.92033 35.4303 5.17874C35.1931 5.27772 33.7751 5.85614 32.2791 6.4641C29.5969 7.55413 12.3369 14.5862 7.36782 16.6134C5.96304 17.1864 4.36587 17.8356 3.81855 18.0558C2.21714 18.7003 1.59499 19.0538 0.979535 19.6689C-0.286991 20.9345 -0.329383 22.8115 0.876042 24.2469C1.22506 24.6624 2.03198 25.2637 2.60371 25.5343C2.83398 25.6433 5.29133 26.4712 8.06441 27.3742C10.8375 28.2771 13.1241 29.0361 13.1458 29.0609C13.1675 29.0855 13.6413 30.551 14.1987 32.3174C17.0013 41.1997 17.1633 41.6748 17.662 42.4772C17.9729 42.9775 18.4916 43.4808 18.9059 43.684C19.4365 43.9443 20.1999 44.0655 20.7699 43.9799C21.3427 43.8938 21.8693 43.7062 22.2111 43.4665C22.3553 43.3653 23.0376 42.7837 23.7274 42.1739C26.8917 39.3765 28.2227 38.2273 28.2916 38.2332C28.3326 38.2367 29.6048 39.1597 31.1187 40.2844C38.9017 46.0665 38.2262 45.6032 39.2861 45.8852C39.8721 46.041 41.3288 46.0374 41.9317 45.8784C42.9433 45.6119 43.8112 45.0476 44.4301 44.254C45.1266 43.361 45.0807 43.5216 46.1447 38.2544C46.6759 35.6249 47.213 32.9678 47.3382 32.3495C47.583 31.1411 49.1355 23.4482 49.5613 21.3336C49.7036 20.627 50.3454 17.4475 50.9875 14.268C51.6296 11.0884 52.3312 7.614 52.5467 6.54702C52.7621 5.48005 52.9576 4.39612 52.9813 4.13829C53.1884 1.87845 51.6517 0.0902676 49.4283 0.00406702C49.0456 -0.0107708 48.6287 0.0145369 48.3669 0.0684283ZM48.8594 4.1995C48.8452 4.2613 48.7749 4.61535 48.7032 4.98629C48.6316 5.35724 48.1669 7.66962 47.6707 10.1249C46.4467 16.1813 42.6559 34.942 41.9664 38.3553C41.6596 39.8744 41.3879 41.2329 41.3627 41.3742C41.3036 41.7061 41.1673 41.9636 41.0066 42.0468C40.8127 42.1473 40.4603 42.126 40.2043 41.9984C40.027 41.91 35.2291 38.3798 31.0186 35.2397C28.1691 33.1147 28.0639 33.0424 27.9492 33.1305C27.8875 33.1779 26.3614 34.5174 24.5579 36.1071C21.2219 39.0478 20.7688 39.4419 20.7688 39.4034C20.7688 39.3727 22.2165 30.4324 22.2604 30.1921C22.2893 30.0339 22.6349 29.6896 23.9687 28.49C24.8883 27.6628 26.1202 26.5525 26.7063 26.0226C27.2924 25.4927 29.4876 23.514 31.5845 21.6254C33.6815 19.7369 35.5762 18.0287 35.7952 17.8294C36.0141 17.6301 36.8948 16.8359 37.7522 16.0646C40.7887 13.3331 41.1092 13.0427 41.7551 12.4381C42.4815 11.7581 42.5989 11.5912 42.5471 11.3121C42.4681 10.8869 42.1483 10.7909 41.551 11.0133C41.3773 11.078 40.5485 11.5448 39.7093 12.0506C38.8701 12.5565 36.3624 14.0607 34.1366 15.3934C31.9109 16.726 29.5375 18.1479 28.8625 18.5532C27.6736 19.267 23.0752 22.0214 18.6381 24.6777C17.2633 25.5007 16.4408 25.9564 16.3825 25.9274C16.332 25.9023 13.6786 25.0347 10.4859 23.9994C7.29319 22.9641 4.65751 22.0972 4.62878 22.073C4.60006 22.0487 7.21225 20.9557 10.4337 19.6439C15.9021 17.4172 20.4955 15.5457 30.7532 11.3653C39.1422 7.9464 40.3819 7.44217 44.552 5.75381C46.8871 4.8083 48.8173 4.04657 48.8413 4.06095C48.8654 4.07534 48.8735 4.13771 48.8594 4.1995Z" fill="white"/>
</svg>
