<svg width="25" height="27" fill="none" xmlns="http://www.w3.org/2000/svg"><path d="M2.778 27H0v-1.421c.006-5.491 4.355-9.941 9.722-9.947h5.556c5.367.006 9.716 4.456 9.722 9.947V27h-2.778v-1.421c-.004-3.922-3.11-7.1-6.944-7.105H9.722c-3.833.004-6.94 3.183-6.944 7.105V27ZM12.5 14.21c-3.835 0-6.944-3.18-6.944-7.105C5.556 3.181 8.665 0 12.5 0s6.944 3.181 6.944 7.105c-.004 3.922-3.11 7.1-6.944 7.105Zm0-11.368c-2.301 0-4.167 1.909-4.167 4.263 0 2.355 1.866 4.263 4.167 4.263 2.301 0 4.167-1.908 4.167-4.263 0-2.354-1.866-4.263-4.167-4.263Z" fill="#fff"/></svg>